<?xml version="1.0" standalone="no"?>
<!DOCTYPE svg PUBLIC "-//W3C//DTD SVG 20010904//EN"
 "http://www.w3.org/TR/2001/REC-SVG-20010904/DTD/svg10.dtd">
<svg version="1.0" xmlns="http://www.w3.org/2000/svg"
 width="900.000000pt" height="512.000000pt" viewBox="0 0 900.000000 512.000000"
 preserveAspectRatio="xMidYMid meet">

<g transform="translate(0.000000,512.000000) scale(0.100000,-0.100000)"
fill="#39033a" stroke="none">
<path d="M4456 4385 c-20 -7 -42 -18 -50 -24 -8 -7 -52 -98 -99 -204 -197
-445 -645 -1457 -724 -1637 -48 -107 -90 -199 -94 -204 -4 -5 -47 22 -96 60
-517 409 -1220 959 -1249 979 -94 64 -220 -13 -199 -122 3 -18 215 -575 471
-1236 357 -921 472 -1209 493 -1230 15 -16 45 -32 67 -37 56 -13 3009 -13
3055 0 20 6 47 21 61 34 16 17 168 397 488 1223 255 659 468 1216 473 1238 23
101 -87 191 -176 144 -22 -12 -286 -212 -986 -747 -376 -287 -385 -293 -397
-270 -6 13 -204 457 -439 988 -235 531 -433 977 -441 992 -25 49 -98 73 -158
53z m89 -532 c38 -90 391 -886 651 -1474 80 -180 155 -336 168 -348 32 -30 78
-41 120 -30 21 6 255 178 592 435 306 234 558 424 559 422 2 -2 -92 -249 -209
-550 l-211 -547 -606 -1 -607 0 -7 36 c-23 123 -134 269 -253 332 -174 93
-383 78 -543 -37 -85 -63 -177 -201 -194 -293 l-7 -38 -607 0 -606 1 -208 540
c-115 297 -207 542 -205 543 1 2 185 -140 408 -316 738 -581 696 -550 744
-555 53 -6 97 15 123 59 11 18 206 455 434 970 228 516 417 938 420 938 3 0
23 -39 44 -87z m55 -1944 c118 -53 176 -181 140 -310 -14 -48 -84 -127 -135
-150 -48 -22 -151 -25 -199 -5 -160 67 -206 283 -88 410 67 72 192 96 282 55z
m-548 -471 c41 -78 137 -174 210 -211 152 -77 324 -77 476 0 74 37 169 132
210 211 l33 62 565 0 c534 0 565 -1 560 -17 -4 -10 -48 -126 -100 -258 l-93
-240 -1413 0 -1413 0 -99 255 c-54 139 -98 255 -98 257 0 2 254 3 564 3 l565
0 33 -62z"/>
</g>
</svg>
